<svg version="1.1" xmlns="http://www.w3.org/2000/svg" xmlns:xlink="http://www.w3.org/1999/xlink" width="24px" height="24px" viewBox="0,0,256,256"><g fill="#a6be4d" fill-rule="nonzero" stroke="none" stroke-width="1" stroke-linecap="butt" stroke-linejoin="miter" stroke-miterlimit="10" stroke-dasharray="" stroke-dashoffset="0" font-family="none" font-weight="none" font-size="none" text-anchor="none" style="mix-blend-mode: normal"><g transform="translate(0,266.66667) scale(0.26667,0.26667)"><path d="M480,-600l-140,-140l140,-140l140,140zM40,-160v-160c0,-22.66667 7.83333,-41.66667 23.5,-57c15.66667,-15.33333 34.5,-23 56.5,-23h131c13.33333,0 26,3.33333 38,10c12,6.66667 21.66667,15.66667 29,27c19.33333,26 43.16667,46.33333 71.5,61c28.33333,14.66667 58.5,22 90.5,22c32.66667,0 63.16667,-7.33333 91.5,-22c28.33333,-14.66667 51.83333,-35 70.5,-61c8.66667,-11.33333 18.83333,-20.33333 30.5,-27c11.66667,-6.66667 23.83333,-10 36.5,-10h131c22.66667,0 41.66667,7.66667 57,23c15.33333,15.33333 23,34.33333 23,57v160h-280v-91c-23.33333,16.66667 -48.5,29.33333 -75.5,38c-27,8.66667 -55.16667,13 -84.5,13c-28.66667,0 -56.66667,-4.5 -84,-13.5c-27.33333,-9 -52.66667,-21.83333 -76,-38.5v92zM160,-440c-33.33333,0 -61.66667,-11.66667 -85,-35c-23.33333,-23.33333 -35,-51.66667 -35,-85c0,-34 11.66667,-62.5 35,-85.5c23.33333,-23 51.66667,-34.5 85,-34.5c34,0 62.5,11.5 85.5,34.5c23,23 34.5,51.5 34.5,85.5c0,33.33333 -11.5,61.66667 -34.5,85c-23,23.33333 -51.5,35 -85.5,35zM800,-440c-33.33333,0 -61.66667,-11.66667 -85,-35c-23.33333,-23.33333 -35,-51.66667 -35,-85c0,-34 11.66667,-62.5 35,-85.5c23.33333,-23 51.66667,-34.5 85,-34.5c34,0 62.5,11.5 85.5,34.5c23,23 34.5,51.5 34.5,85.5c0,33.33333 -11.5,61.66667 -34.5,85c-23,23.33333 -51.5,35 -85.5,35z"></path></g></g></svg>