<svg version="1.1" xmlns="http://www.w3.org/2000/svg" xmlns:xlink="http://www.w3.org/1999/xlink" width="24px" height="24px" viewBox="0,0,256,256"><g fill="#a6be4d" fill-rule="nonzero" stroke="none" stroke-width="1" stroke-linecap="butt" stroke-linejoin="miter" stroke-miterlimit="10" stroke-dasharray="" stroke-dashoffset="0" font-family="none" font-weight="none" font-size="none" text-anchor="none" style="mix-blend-mode: normal"><g transform="translate(0,256) scale(0.26667,0.26667)"><path d="M570,-390c46.66667,-46.66667 70,-103.33333 70,-170c0,-66.66667 -23.33333,-123.33333 -70,-170c-46.66667,-46.66667 -103.33333,-70 -170,-70c-66.66667,0 -123.33333,23.33333 -170,70c-46.66667,46.66667 -70,103.33333 -70,170c0,66.66667 23.33333,123.33333 70,170c46.66667,46.66667 103.33333,70 170,70c66.66667,0 123.33333,-23.33333 170,-70zM358,-418l226,-227l-57,-57l-169,170l-85,-84l-57,56zM400,-240c-89.33333,0 -165,-31 -227,-93c-62,-62 -93,-137.66667 -93,-227c0,-89.33333 31,-165 93,-227c62,-62 137.66667,-93 227,-93c89.33333,0 165,31 227,93c62,62 93,137.66667 93,227c0,37.33333 -5.83333,72.5 -17.5,105.5c-11.66667,33 -28.16667,63.16667 -49.5,90.5l227,228l-56,56l-228,-227c-27.33333,21.33333 -57.5,37.83333 -90.5,49.5c-33,11.66667 -68.16667,17.5 -105.5,17.5zM400,-560z"></path></g></g></svg>