<svg version="1.1" xmlns="http://www.w3.org/2000/svg" xmlns:xlink="http://www.w3.org/1999/xlink" width="24px" height="24px" viewBox="0,0,256,256"><g fill="#a6be4d" fill-rule="nonzero" stroke="none" stroke-width="1" stroke-linecap="butt" stroke-linejoin="miter" stroke-miterlimit="10" stroke-dasharray="" stroke-dashoffset="0" font-family="none" font-weight="none" font-size="none" text-anchor="none" style="mix-blend-mode: normal"><g transform="translate(0,256) scale(0.26667,0.26667)"><path d="M300,-300l280,-80l80,-280l-280,80zM480,-420c-16.66667,0 -30.83333,-5.83333 -42.5,-17.5c-11.66667,-11.66667 -17.5,-25.83333 -17.5,-42.5c0,-16.66667 5.83333,-30.83333 17.5,-42.5c11.66667,-11.66667 25.83333,-17.5 42.5,-17.5c16.66667,0 30.83333,5.83333 42.5,17.5c11.66667,11.66667 17.5,25.83333 17.5,42.5c0,16.66667 -5.83333,30.83333 -17.5,42.5c-11.66667,11.66667 -25.83333,17.5 -42.5,17.5zM480,-80c-55.33333,0 -107.33333,-10.5 -156,-31.5c-48.66667,-21 -91,-49.5 -127,-85.5c-36,-36 -64.5,-78.33333 -85.5,-127c-21,-48.66667 -31.5,-100.66667 -31.5,-156c0,-55.33333 10.5,-107.33333 31.5,-156c21,-48.66667 49.5,-91 85.5,-127c36,-36 78.33333,-64.5 127,-85.5c48.66667,-21 100.66667,-31.5 156,-31.5c55.33333,0 107.33333,10.5 156,31.5c48.66667,21 91,49.5 127,85.5c36,36 64.5,78.33333 85.5,127c21,48.66667 31.5,100.66667 31.5,156c0,55.33333 -10.5,107.33333 -31.5,156c-21,48.66667 -49.5,91 -85.5,127c-36,36 -78.33333,64.5 -127,85.5c-48.66667,21 -100.66667,31.5 -156,31.5zM480,-160c88.66667,0 164.16667,-31.16667 226.5,-93.5c62.33333,-62.33333 93.5,-137.83333 93.5,-226.5c0,-88.66667 -31.16667,-164.16667 -93.5,-226.5c-62.33333,-62.33333 -137.83333,-93.5 -226.5,-93.5c-88.66667,0 -164.16667,31.16667 -226.5,93.5c-62.33333,62.33333 -93.5,137.83333 -93.5,226.5c0,88.66667 31.16667,164.16667 93.5,226.5c62.33333,62.33333 137.83333,93.5 226.5,93.5zM480,-480z"></path></g></g></svg>