<svg version="1.1" xmlns="http://www.w3.org/2000/svg" xmlns:xlink="http://www.w3.org/1999/xlink" width="24px" height="24px" viewBox="0,0,256,256"><g fill="#a6be4d" fill-rule="nonzero" stroke="none" stroke-width="1" stroke-linecap="butt" stroke-linejoin="miter" stroke-miterlimit="10" stroke-dasharray="" stroke-dashoffset="0" font-family="none" font-weight="none" font-size="none" text-anchor="none" style="mix-blend-mode: normal"><g transform="translate(-10.66667,256) scale(0.26667,0.26667)"><path d="M480,-80c-92.66667,-23.33333 -169.16667,-76.5 -229.5,-159.5c-60.33333,-83 -90.5,-175.16667 -90.5,-276.5v-244l320,-120l320,120v227c-12.66667,-5.33333 -25.66667,-10.16667 -39,-14.5c-13.33333,-4.33333 -27,-7.5 -41,-9.5v-147l-240,-90l-240,90v188c0,31.33333 4.16667,62.66667 12.5,94c8.33333,31.33333 20,61.16667 35,89.5c15,28.33333 33.16667,54.5 54.5,78.5c21.33333,24 45,44 71,60c7.33333,21.33333 17,41.66667 29,61c12,19.33333 25.66667,36.66667 41,52c-0.66667,0 -1.16667,0.16667 -1.5,0.5c-0.33333,0.33333 -0.83333,0.5 -1.5,0.5zM680,-80c-55.33333,0 -102.5,-19.5 -141.5,-58.5c-39,-39 -58.5,-86.16667 -58.5,-141.5c0,-55.33333 19.5,-102.5 58.5,-141.5c39,-39 86.16667,-58.5 141.5,-58.5c55.33333,0 102.5,19.5 141.5,58.5c39,39 58.5,86.16667 58.5,141.5c0,55.33333 -19.5,102.5 -58.5,141.5c-39,39 -86.16667,58.5 -141.5,58.5zM480,-494zM660,-160h40v-100h100v-40h-100v-100h-40v100h-100v40h100z"></path></g></g></svg>